<?xml version="1.0" encoding="UTF-8"?>
<svg version="1.1" xmlns="http://www.w3.org/2000/svg" width="144" height="142">
<path d="M0 0 C47.52 0 95.04 0 144 0 C144 46.86 144 93.72 144 142 C96.48 142 48.96 142 0 142 C0 95.14 0 48.28 0 0 Z " fill="#010101" transform="translate(0,0)"/>
<path d="M0 0 C5.86175697 2.67378388 10.55794524 7.99211306 13 14 C13.90283166 21.34862979 13.53998837 27.96069449 9 34 C5.60272583 37.73127584 1.94994115 39.95289706 -3 41 C-6.34119795 41.1454876 -9.65842049 41.11887042 -13 41 C-13 40.34 -13 39.68 -13 39 C-13.8353125 38.814375 -13.8353125 38.814375 -14.6875 38.625 C-21.34576294 36.82546948 -21.34576294 36.82546948 -23.58203125 34.00390625 C-27.7000892 25.83315634 -27.94095915 18.86159217 -26 10 C-25.34 10 -24.68 10 -24 10 C-23.7525 9.4225 -23.505 8.845 -23.25 8.25 C-18.06094188 -1.09030461 -9.68885574 -0.90233814 0 0 Z " fill="#F9F9F9" transform="translate(79,31)"/>
<path d="M0 0 C4.71563069 3.3423421 8.23711431 8.22546184 9.328125 13.92578125 C9.44446129 18.99804332 8.48342281 23.52275709 6.82421875 28.29296875 C6.16421875 28.29296875 5.50421875 28.29296875 4.82421875 28.29296875 C4.78296875 29.03546875 4.74171875 29.77796875 4.69921875 30.54296875 C3.44916364 34.47171337 1.38448426 35.37590271 -2.17578125 37.29296875 C-8.07095374 39.25802625 -14.9021899 38.832465 -20.86328125 37.41796875 C-25.77048802 34.26994932 -28.82283821 30.64311304 -31.17578125 25.29296875 C-31.71934321 20.88623432 -31.61144553 16.704934 -31.17578125 12.29296875 C-30.51578125 12.29296875 -29.85578125 12.29296875 -29.17578125 12.29296875 C-28.84578125 9.98296875 -28.51578125 7.67296875 -28.17578125 5.29296875 C-27.51578125 5.29296875 -26.85578125 5.29296875 -26.17578125 5.29296875 C-26.17578125 4.63296875 -26.17578125 3.97296875 -26.17578125 3.29296875 C-25.51578125 3.29296875 -24.85578125 3.29296875 -24.17578125 3.29296875 C-24.17578125 2.63296875 -24.17578125 1.97296875 -24.17578125 1.29296875 C-17.35231641 -3.25600781 -7.46024117 -3.33130266 0 0 Z " fill="#F5F5F5" transform="translate(57.17578125,75.70703125)"/>
<path d="M0 0 C3.12978675 2.06958057 4.89453367 4.87558954 6.68359375 8.11328125 C7.11671875 8.87640625 7.54984375 9.63953125 7.99609375 10.42578125 C9.49772653 16.29580028 9.58211767 22.6785489 6.68359375 28.11328125 C6.02359375 28.11328125 5.36359375 28.11328125 4.68359375 28.11328125 C4.68359375 29.10328125 4.68359375 30.09328125 4.68359375 31.11328125 C2.15174887 33.47051614 1.21169282 34.11328125 -2.31640625 34.11328125 C-2.31640625 35.10328125 -2.31640625 36.09328125 -2.31640625 37.11328125 C-8.32921962 39.11755237 -15.7035522 39.16025883 -21.56640625 36.61328125 C-22.47390625 36.11828125 -23.38140625 35.62328125 -24.31640625 35.11328125 C-24.31640625 34.12328125 -24.31640625 33.13328125 -24.31640625 32.11328125 C-24.91453125 31.90703125 -25.51265625 31.70078125 -26.12890625 31.48828125 C-29.33209344 29.4748493 -30.04437376 27.67497221 -31.31640625 24.11328125 C-31.55144289 20.7627589 -31.49527679 17.46544772 -31.31640625 14.11328125 C-30.65640625 14.11328125 -29.99640625 14.11328125 -29.31640625 14.11328125 C-29.31640625 12.79328125 -29.31640625 11.47328125 -29.31640625 10.11328125 C-28.65640625 10.11328125 -27.99640625 10.11328125 -27.31640625 10.11328125 C-26.98640625 7.80328125 -26.65640625 5.49328125 -26.31640625 3.11328125 C-25.65640625 3.11328125 -24.99640625 3.11328125 -24.31640625 3.11328125 C-24.31640625 2.45328125 -24.31640625 1.79328125 -24.31640625 1.11328125 C-17.30020184 -3.56418836 -7.63044775 -3.34724423 0 0 Z " fill="#F7F7F7" transform="translate(109.31640625,75.88671875)"/>
<path d="M0 0 C47.52 0 95.04 0 144 0 C144 46.86 144 93.72 144 142 C138.06 142 132.12 142 126 142 C127.95702015 140.6953199 129.93582457 139.42257633 131.9375 138.1875 C136.54091497 134.89934645 139.35544218 131.40985959 141 126 C141.3079338 122.51874111 141.30404809 119.04664799 141.30639648 115.5534668 C141.31888176 113.97693832 141.31888176 113.97693832 141.33161926 112.36856079 C141.35570683 108.89540904 141.36449 105.42244516 141.37109375 101.94921875 C141.38006104 99.53172245 141.38918291 97.11422672 141.39845276 94.69673157 C141.41494196 89.62861788 141.42264276 84.56057024 141.42553711 79.49243164 C141.43092058 73.00585351 141.46860052 66.51989819 141.51428127 60.0334959 C141.54405832 55.0396957 141.55126082 50.04604534 141.55226326 45.05216408 C141.55646425 42.66120362 141.56889357 40.27024265 141.58978081 37.87936974 C141.61670679 34.53068929 141.61186492 31.18345108 141.59936523 27.8347168 C141.61419952 26.85210373 141.62903381 25.86949066 141.64431763 24.85710144 C141.57509949 18.32839239 140.16994619 14.06993714 136 9 C129.6789052 2.99495994 123.89057002 2.69920838 115.5534668 2.69360352 C114.50244781 2.68528 113.45142883 2.67695648 112.36856079 2.66838074 C108.89540904 2.64429317 105.42244516 2.63551 101.94921875 2.62890625 C99.53172245 2.61993896 97.11422672 2.61081709 94.69673157 2.60154724 C89.62861788 2.58505804 84.56057024 2.57735724 79.49243164 2.57446289 C73.00585351 2.56907942 66.51989819 2.53139948 60.0334959 2.48571873 C55.0396957 2.45594168 50.04604534 2.44873918 45.05216408 2.44773674 C42.66120362 2.44353575 40.27024265 2.43110643 37.87936974 2.41021919 C34.53068929 2.38329321 31.18345108 2.38813508 27.8347168 2.40063477 C26.3607972 2.37838333 26.3607972 2.37838333 24.85710144 2.35568237 C18.33540691 2.42482614 14.05814905 3.82046639 9 8 C5.12425278 12.18172727 2.75702561 15.80405999 2.73257446 21.56524658 C2.72404449 22.47632675 2.71551453 23.38740692 2.70672607 24.32609558 C2.70763245 25.31837662 2.70853882 26.31065765 2.70947266 27.33300781 C2.70275543 28.38388077 2.69603821 29.43475372 2.68911743 30.51747131 C2.67009995 33.99607049 2.66621107 37.47447705 2.6640625 40.953125 C2.65763631 43.37205078 2.65090809 45.79097577 2.64389038 48.2098999 C2.6319076 53.28399456 2.62821051 58.35802109 2.62939453 63.43212891 C2.62959757 69.92649729 2.60231467 76.42042734 2.56785011 82.91469193 C2.54558367 87.91278072 2.54155695 92.91076408 2.54261398 97.9088974 C2.54025691 100.30263528 2.53142746 102.69637601 2.51594925 105.090065 C2.49629891 108.44349081 2.5021248 111.79597224 2.51416016 115.14941406 C2.50292114 116.13359818 2.49168213 117.11778229 2.48010254 118.13179016 C2.54087658 124.81383407 3.6416479 130.54694912 8.44732094 135.48813248 C9.90552214 136.7319145 11.45137511 137.87079435 13 139 C14.32 139.99 15.64 140.98 17 142 C11.39 142 5.78 142 0 142 C0 95.14 0 48.28 0 0 Z " fill="#FDFDFD" transform="translate(0,0)"/>
<path d="M0 0 C1.24007812 -0.00515625 2.48015625 -0.0103125 3.7578125 -0.015625 C6.875 0.25 6.875 0.25 8.875 2.25 C7.57175781 2.18039063 7.57175781 2.18039063 6.2421875 2.109375 C-2.70367706 1.7101344 -2.70367706 1.7101344 -10.125 6.25 C-11.21227508 7.3293772 -12.29553798 8.41280914 -13.375 9.5 C-14.2825 10.4075 -15.19 11.315 -16.125 12.25 C-16.785 12.25 -17.445 12.25 -18.125 12.25 C-18.125 17.53 -18.125 22.81 -18.125 28.25 C-20.125 26.25 -20.125 26.25 -20.35546875 23.82421875 C-20.34128906 22.87160156 -20.32710937 21.91898438 -20.3125 20.9375 C-20.30605469 19.99261719 -20.29960938 19.04773438 -20.29296875 18.07421875 C-20.13247977 15.37576443 -19.72433915 12.88229753 -19.125 10.25 C-18.465 10.25 -17.805 10.25 -17.125 10.25 C-16.8775 9.6725 -16.63 9.095 -16.375 8.5 C-12.49054273 1.50797691 -7.65592572 -0.03196629 0 0 Z " fill="#AAAAAA" transform="translate(72.125,30.75)"/>
<path d="M0 0 C0.66 0.33 1.32 0.66 2 1 C1.67 2.32 1.34 3.64 1 5 C0.34 5 -0.32 5 -1 5 C-1 6.32 -1 7.64 -1 9 C-1.66 9 -2.32 9 -3 9 C-2.67 12.96 -2.34 16.92 -2 21 C-2.66 20.67 -3.32 20.34 -4 20 C-4.68912276 6.02612175 -4.68912276 6.02612175 -2 2.125 C-1.34 1.42375 -0.68 0.7225 0 0 Z " fill="#4B4B4B" transform="translate(81,81)"/>
<path d="M0 0 C0.33 0 0.66 0 1 0 C1 4.62 1 9.24 1 14 C0.34 14 -0.32 14 -1 14 C-1.12375 14.639375 -1.2475 15.27875 -1.375 15.9375 C-1.58125 16.618125 -1.7875 17.29875 -2 18 C-2.66 18.33 -3.32 18.66 -4 19 C-4 18.01 -4 17.02 -4 16 C-3.34 16 -2.68 16 -2 16 C-1.20734361 10.67787852 -0.57021934 5.3503559 0 0 Z " fill="#6C6C6C" transform="translate(66,88)"/>
<path d="M0 0 C-5.82478551 3.03901852 -10.48208608 3.3540919 -17 3 C-17 2.67 -17 2.34 -17 2 C-15.2365625 1.814375 -15.2365625 1.814375 -13.4375 1.625 C-10.55342634 1.27665718 -7.89755939 0.73887113 -5.125 -0.125 C-2 -1 -2 -1 0 0 Z " fill="#B8B8B8" transform="translate(83,69)"/>
<path d="M0 0 C0.99 0.33 1.98 0.66 3 1 C0.69 3.31 -1.62 5.62 -4 8 C-4.66 7.67 -5.32 7.34 -6 7 C-5.34 6.01 -4.68 5.02 -4 4 C-3.34 4 -2.68 4 -2 4 C-2 3.34 -2 2.68 -2 2 C-1.34 2 -0.68 2 0 2 C0 1.34 0 0.68 0 0 Z " fill="#EEEEEE" transform="translate(34,78)"/>
<path d="M0 0 C0.66 0.33 1.32 0.66 2 1 C1.67 2.32 1.34 3.64 1 5 C0.34 5 -0.32 5 -1 5 C-1 6.32 -1 7.64 -1 9 C-1.66 9 -2.32 9 -3 9 C-1.125 2.25 -1.125 2.25 0 0 Z " fill="#A1A1A1" transform="translate(81,81)"/>
<path d="M0 0 C2.76276177 0.52268466 5.3260876 1.10869587 8 2 C8.33 2.99 8.66 3.98 9 5 C8.34 5 7.68 5 7 5 C7 4.34 7 3.68 7 3 C4.69 2.67 2.38 2.34 0 2 C0 1.34 0 0.68 0 0 Z " fill="#ACACAC" transform="translate(103,75)"/>
</svg>
